<svg width="44" height="36" viewBox="0 0 44 36" fill="none" xmlns="http://www.w3.org/2000/svg">
<path d="M17.6 11.6875L18.7668 0.494156C18.6136 0.337464 18.4317 0.213175 18.2315 0.128388C18.0313 0.0436 17.8167 -2.65305e-05 17.6 1.21042e-08V11.6875ZM22 11.1875L20.8332 17.3808C20.9864 17.5375 21.1683 17.6618 21.3685 17.7466C21.5687 17.8314 21.7833 17.875 22 17.875V11.1875ZM37.95 32.625H6.05V36H37.95V32.625ZM3.3 29.8125V16.1875L0 6.1875V29.8125H3.3ZM6.05 13.375H17.6V1.21042e-08H6.05V13.375ZM16.4332 12.8808L20.8332 17.3808L23.1668 4.99416L18.7668 0.494156L17.6 11.6875L16.4332 12.8808ZM40.7 20.6875V29.8125H44V10.6875L40.7 20.6875ZM22 17.875H37.95V4.5H22V17.875ZM6.05 32.625C4.53118 32.625 3.3 31.3658 3.3 29.8125H0C0 33.2297 2.70875 36 6.05 36V32.625ZM37.95 36C41.2913 36 44 33.2297 44 29.8125H40.7C40.7 31.3658 39.4688 32.625 37.95 32.625V36ZM44 10.6875C44 7.27031 41.2913 4.5 37.95 4.5V17.875C39.4688 17.875 40.7 19.1342 40.7 20.6875L44 10.6875ZM3.3 16.1875C3.3 14.6342 4.53118 13.375 6.05 13.375V1.21042e-08C2.70875 1.21042e-08 0 2.77031 0 6.1875L3.3 16.1875Z" fill="#352F44"/>
</svg>
