<svg width="45" height="36" viewBox="0 0 45 36" fill="none" xmlns="http://www.w3.org/2000/svg">
<path d="M16.3125 1.8L17.5941 0.527205C17.2543 0.189651 16.7932 3.15435e-06 16.3125 3.15435e-06V1.8ZM9.96875 36C10.9698 36 11.7813 35.1941 11.7813 34.2C11.7813 33.2059 10.9698 32.4 9.96875 32.4V36ZM27.1875 12.6H29C29 12.1226 28.809 11.6648 28.4691 11.3272L27.1875 12.6ZM25.375 14.4C25.375 15.3941 26.1865 16.2 27.1875 16.2C28.1885 16.2 29 15.3941 29 14.4H25.375ZM16.3125 3.15435e-06H7.6125V3.6H16.3125V3.15435e-06ZM3.17625e-06 7.56V28.44H3.625V7.56H3.17625e-06ZM7.6125 36H9.96875V32.4H7.6125V36ZM28.4691 11.3272L17.5941 0.527205L15.0309 3.0728L25.9059 13.8728L28.4691 11.3272ZM29 14.4V12.6H25.375V14.4H29ZM3.17625e-06 28.44C3.17625e-06 29.4185 -0.00141052 30.2605 0.0554114 30.951C0.113955 31.6627 0.243223 32.3705 0.592655 33.0516L3.82255 31.4172C3.77689 31.3281 3.7086 31.1468 3.66838 30.658C3.62642 30.1478 3.625 29.4779 3.625 28.44H3.17625e-06ZM7.6125 32.4C6.56751 32.4 5.89275 32.3986 5.37921 32.357C4.88681 32.317 4.70426 32.2492 4.61465 32.2038L2.96893 35.4114C3.65475 35.7584 4.36746 35.8868 5.08401 35.9449C5.77941 36.0014 6.62732 36 7.6125 36V32.4ZM0.592655 33.0516C1.11397 34.0677 1.94579 34.8937 2.96893 35.4114L4.61465 32.2038C4.27361 32.0312 3.99633 31.756 3.82255 31.4172L0.592655 33.0516ZM7.6125 3.15435e-06C6.62732 3.15435e-06 5.77941 -0.00140079 5.08401 0.0550292C4.36746 0.113169 3.65475 0.241545 2.96893 0.588567L4.61465 3.79618C4.70426 3.75084 4.88681 3.68302 5.37921 3.64308C5.89275 3.60141 6.56751 3.6 7.6125 3.6V3.15435e-06ZM3.625 7.56C3.625 6.52221 3.62642 5.85211 3.66838 5.34211C3.7086 4.85311 3.77689 4.67181 3.82255 4.58282L0.592655 2.94846C0.243223 3.62954 0.113955 4.33734 0.0554114 5.04895C-0.00141052 5.73955 3.17625e-06 6.58161 3.17625e-06 7.56H3.625ZM2.96893 0.588567C1.94579 1.10628 1.11397 1.93237 0.592655 2.94846L3.82255 4.58282C3.99633 4.24413 4.27361 3.96877 4.61465 3.79618L2.96893 0.588567ZM14.5 1.8V9.72H18.125V1.8H14.5ZM19.2125 14.4H27.1875V10.8H19.2125V14.4ZM14.5 9.72C14.5 10.1944 14.4986 10.6584 14.5306 11.0488C14.5645 11.4603 14.6445 11.9458 14.8951 12.4344L18.125 10.8C18.1781 10.9035 18.1593 10.9445 18.1437 10.7557C18.1265 10.5458 18.125 10.2538 18.125 9.72H14.5ZM19.2125 10.8C18.6751 10.8 18.3809 10.7986 18.1696 10.7815C17.9795 10.766 18.0208 10.7473 18.125 10.8L16.4793 14.0076C16.9712 14.2566 17.4602 14.3359 17.8745 14.3695C18.2676 14.4014 18.7349 14.4 19.2125 14.4V10.8ZM14.8951 12.4344C15.2426 13.1117 15.7972 13.6625 16.4793 14.0076L18.125 10.8L14.8951 12.4344Z" fill="#5C5470"/>
<path d="M14.741 31.808V22.838H16.262L16.353 23.41C16.6217 23.1847 16.9163 23.0113 17.237 22.89C17.5577 22.7687 17.9347 22.708 18.368 22.708C19.2693 22.708 19.9627 22.955 20.448 23.449C20.942 23.9343 21.189 24.7317 21.189 25.841C21.189 26.9503 20.9247 27.778 20.396 28.324C19.876 28.8613 19.1653 29.13 18.264 29.13C17.5707 29.13 16.9813 28.974 16.496 28.662V31.808H14.741ZM17.822 27.843C18.342 27.843 18.7363 27.6827 19.005 27.362C19.2737 27.0413 19.408 26.5387 19.408 25.854C19.408 25.1953 19.2867 24.723 19.044 24.437C18.8013 24.1423 18.4113 23.995 17.874 23.995C17.3367 23.995 16.8773 24.1813 16.496 24.554V27.375C16.678 27.5137 16.8687 27.6263 17.068 27.713C17.276 27.7997 17.5273 27.843 17.822 27.843ZM26.205 29.13C25.1043 29.13 24.2593 28.857 23.67 28.311C23.0893 27.765 22.799 26.9677 22.799 25.919C22.799 24.8357 23.111 24.0297 23.735 23.501C24.3676 22.9723 25.2083 22.708 26.257 22.708C26.6903 22.708 27.063 22.7383 27.375 22.799C27.687 22.8597 27.9903 22.9593 28.285 23.098V24.359C28.0683 24.255 27.817 24.1727 27.531 24.112C27.245 24.0513 26.9373 24.021 26.608 24.021C25.9493 24.021 25.4466 24.1597 25.1 24.437C24.7533 24.7057 24.58 25.1997 24.58 25.919C24.58 26.5777 24.736 27.0587 25.048 27.362C25.3686 27.6653 25.8843 27.817 26.595 27.817C26.8983 27.817 27.193 27.7867 27.479 27.726C27.7736 27.6653 28.0466 27.5743 28.298 27.453V28.753C27.7173 29.0043 27.0196 29.13 26.205 29.13ZM31.9936 29.13C31.6036 29.13 31.2396 29.0607 30.9016 28.922C30.5723 28.7747 30.3036 28.5623 30.0956 28.285C29.8963 27.999 29.7966 27.6437 29.7966 27.219C29.7966 26.6123 30.009 26.127 30.4336 25.763C30.867 25.399 31.504 25.217 32.3446 25.217H34.1646V25.048C34.1646 24.6667 34.0563 24.398 33.8396 24.242C33.6316 24.086 33.207 24.008 32.5656 24.008C31.8636 24.008 31.1876 24.1163 30.5376 24.333V23.098C30.8236 22.9853 31.1703 22.8943 31.5776 22.825C31.9936 22.747 32.4443 22.708 32.9296 22.708C33.857 22.708 34.572 22.8987 35.0746 23.28C35.586 23.6527 35.8416 24.255 35.8416 25.087V29H34.3206L34.2296 28.441C33.987 28.6577 33.688 28.8267 33.3326 28.948C32.9773 29.0693 32.531 29.13 31.9936 29.13ZM32.4746 27.973C32.8646 27.973 33.2026 27.908 33.4886 27.778C33.7746 27.648 34 27.4833 34.1646 27.284V26.309H32.3836C31.699 26.309 31.3566 26.5907 31.3566 27.154C31.3566 27.7 31.7293 27.973 32.4746 27.973ZM37.9049 31.808V22.838H39.4259L39.5169 23.41C39.7855 23.1847 40.0802 23.0113 40.4009 22.89C40.7215 22.7687 41.0985 22.708 41.5319 22.708C42.4332 22.708 43.1265 22.955 43.6119 23.449C44.1059 23.9343 44.3529 24.7317 44.3529 25.841C44.3529 26.9503 44.0885 27.778 43.5599 28.324C43.0399 28.8613 42.3292 29.13 41.4279 29.13C40.7345 29.13 40.1452 28.974 39.6599 28.662V31.808H37.9049ZM40.9859 27.843C41.5059 27.843 41.9002 27.6827 42.1689 27.362C42.4375 27.0413 42.5719 26.5387 42.5719 25.854C42.5719 25.1953 42.4505 24.723 42.2079 24.437C41.9652 24.1423 41.5752 23.995 41.0379 23.995C40.5005 23.995 40.0412 24.1813 39.6599 24.554V27.375C39.8419 27.5137 40.0325 27.6263 40.2319 27.713C40.4399 27.7997 40.6912 27.843 40.9859 27.843Z" fill="#5C5470"/>
</svg>
