<svg width="527" height="165" viewBox="0 0 527 165" fill="none" xmlns="http://www.w3.org/2000/svg">
<rect y="9.85071" width="295.522" height="147.761" rx="24.6269" fill="#352F44"/>
<path d="M102.527 111.627V60.8758H113.402L134.995 91.2161V60.8758H147.761V111.627H136.807L115.214 81.3654V111.627H102.527ZM161.299 111.627V60.8758H198.18V70.6478H173.986V81.2866H195.264V91.2161H173.986V111.627H161.299Z" fill="#F6F6F6"/>
<path d="M337.94 65V36.9845H346.805L347.101 39.4078C348.244 38.6197 349.682 37.9301 351.416 37.3391C353.149 36.7087 355.001 36.3934 356.971 36.3934C360.596 36.3934 363.236 37.2603 364.891 38.994C366.546 40.7278 367.374 43.4072 367.374 47.0322V65H357.858V47.8006C357.858 46.2245 357.523 45.1015 356.853 44.4316C356.183 43.7618 354.982 43.4269 353.248 43.4269C352.223 43.4269 351.179 43.6633 350.115 44.1361C349.051 44.609 348.165 45.2 347.456 45.9093V65H337.94ZM391.303 65.591C386.417 65.591 382.497 64.3893 379.541 61.9857C376.586 59.5427 375.109 55.8782 375.109 50.9922C375.109 46.5397 376.33 42.9934 378.773 40.3534C381.216 37.7134 384.881 36.3934 389.767 36.3934C394.219 36.3934 397.667 37.5361 400.11 39.8215C402.553 42.1069 403.774 45.1803 403.774 49.0418V54.0657H383.915C384.349 55.9176 385.353 57.2179 386.93 57.9666C388.545 58.6758 390.732 59.0304 393.49 59.0304C395.027 59.0304 396.583 58.8925 398.159 58.6167C399.775 58.3409 401.115 57.9863 402.178 57.5528V63.7588C400.839 64.3893 399.243 64.8424 397.391 65.1182C395.539 65.4334 393.51 65.591 391.303 65.591ZM383.915 48.569H395.5V47.3278C395.5 45.9487 395.086 44.8651 394.258 44.077C393.431 43.2496 392.032 42.8358 390.062 42.8358C387.777 42.8358 386.181 43.3087 385.275 44.2543C384.368 45.1606 383.915 46.5988 383.915 48.569ZM421.794 65.591C418.484 65.591 415.903 64.6651 414.051 62.8131C412.199 60.9218 411.273 58.1833 411.273 54.5976V36.9845H420.789V54.0657C420.789 55.6418 421.163 56.8042 421.912 57.5528C422.7 58.2621 423.862 58.6167 425.399 58.6167C426.542 58.6167 427.625 58.3803 428.65 57.9075C429.674 57.4346 430.522 56.8436 431.191 56.1343V36.9845H440.707V65H431.842L431.546 62.6358C430.403 63.5027 429.024 64.2119 427.409 64.7636C425.793 65.3152 423.922 65.591 421.794 65.591ZM450.28 65V36.9845H459.323L459.618 39.5851C460.84 38.8364 462.357 38.1666 464.169 37.5755C465.982 36.9451 467.794 36.551 469.607 36.3934V43.5451C468.582 43.6633 467.44 43.8603 466.179 44.1361C464.957 44.3725 463.775 44.6681 462.633 45.0227C461.529 45.3773 460.584 45.7516 459.796 46.1457V65H450.28ZM483.699 65.591C481.926 65.591 480.271 65.2758 478.734 64.6454C477.237 64.0149 476.035 63.0496 475.129 61.7493C474.222 60.4096 473.769 58.7546 473.769 56.7845C473.769 53.9081 474.735 51.6621 476.665 50.0466C478.635 48.3916 481.571 47.5642 485.472 47.5642H493.274V46.914C493.274 45.4955 492.801 44.4907 491.855 43.8997C490.91 43.2693 489.136 42.954 486.536 42.954C483.344 42.954 480.212 43.4466 477.138 44.4316V38.2848C478.517 37.7331 480.192 37.28 482.162 36.9254C484.172 36.5707 486.28 36.3934 488.486 36.3934C492.821 36.3934 496.209 37.28 498.652 39.0531C501.135 40.8263 502.376 43.6436 502.376 47.5051V65H494.042L493.569 62.6358C492.545 63.5815 491.225 64.3104 489.609 64.8227C488.033 65.3349 486.063 65.591 483.699 65.591ZM486.713 59.7397C488.21 59.7397 489.511 59.4836 490.614 58.9713C491.717 58.4591 492.604 57.809 493.274 57.0209V53.0609H486.536C483.738 53.0609 482.339 54.1839 482.339 56.4299C482.339 57.4543 482.694 58.2621 483.403 58.8531C484.113 59.4442 485.216 59.7397 486.713 59.7397ZM520.258 65.591C517.184 65.591 514.978 64.9212 513.638 63.5815C512.298 62.2418 511.628 60.0943 511.628 57.1391V25.1636H521.144V56.1934C521.144 57.0997 521.322 57.7301 521.676 58.0848C522.07 58.4 522.642 58.5576 523.39 58.5576C524.454 58.5576 525.4 58.4197 526.227 58.1439V64.5863C525.321 64.9409 524.415 65.197 523.508 65.3546C522.642 65.5122 521.558 65.591 520.258 65.591Z" fill="#352F44"/>
<path d="M339.299 141.343V120.538H335.576V113.328H339.299V111.141C339.299 109.131 339.772 107.319 340.718 105.703C341.703 104.088 343.121 102.807 344.973 101.861C346.825 100.876 349.071 100.384 351.711 100.384C354.942 100.384 357.562 100.778 359.572 101.566V108.304C359.099 108.067 358.39 107.89 357.444 107.772C356.538 107.614 355.71 107.535 354.962 107.535C352.676 107.535 351.081 107.851 350.174 108.481C349.268 109.112 348.815 110.077 348.815 111.377V113.328H365.246V141.343H355.73V120.538H348.815V141.343H339.299ZM383.477 141.934C380.403 141.934 378.197 141.264 376.857 139.925C375.518 138.585 374.848 136.438 374.848 133.482V101.507H384.363V132.537C384.363 133.443 384.541 134.073 384.895 134.428C385.289 134.743 385.861 134.901 386.609 134.901C387.673 134.901 388.619 134.763 389.446 134.487V140.93C388.54 141.284 387.634 141.54 386.728 141.698C385.861 141.856 384.777 141.934 383.477 141.934ZM406.6 141.934C403.133 141.934 400.571 141.048 398.917 139.275C397.301 137.501 396.493 135.058 396.493 131.946V120.538H392.711V113.328H396.493V107.476L406.009 104.935V113.328H412.806L412.392 120.538H406.009V131.296C406.009 132.635 406.344 133.581 407.014 134.133C407.684 134.645 408.689 134.901 410.028 134.901C411.171 134.901 412.333 134.704 413.515 134.31V140.752C411.663 141.54 409.358 141.934 406.6 141.934ZM435.74 141.934C430.854 141.934 426.933 140.733 423.978 138.329C421.023 135.886 419.545 132.221 419.545 127.335C419.545 122.883 420.767 119.337 423.21 116.697C425.653 114.057 429.317 112.737 434.203 112.737C438.656 112.737 442.104 113.879 444.547 116.165C446.99 118.45 448.211 121.524 448.211 125.385V130.409H428.352C428.785 132.261 429.79 133.561 431.366 134.31C432.982 135.019 435.169 135.374 437.927 135.374C439.464 135.374 441.02 135.236 442.596 134.96C444.212 134.684 445.551 134.33 446.615 133.896V140.102C445.276 140.733 443.68 141.186 441.828 141.461C439.976 141.777 437.947 141.934 435.74 141.934ZM428.352 124.912H439.936V123.671C439.936 122.292 439.523 121.208 438.695 120.42C437.868 119.593 436.469 119.179 434.499 119.179C432.213 119.179 430.618 119.652 429.711 120.598C428.805 121.504 428.352 122.942 428.352 124.912ZM456.597 141.343V113.328H465.64L465.935 115.928C467.157 115.18 468.674 114.51 470.486 113.919C472.299 113.288 474.111 112.894 475.924 112.737V119.888C474.899 120.007 473.757 120.204 472.496 120.479C471.274 120.716 470.092 121.011 468.949 121.366C467.846 121.721 466.9 122.095 466.112 122.489V141.343H456.597Z" fill="#352F44"/>
</svg>
