<svg width="24" height="24" viewBox="0 0 24 24" fill="none" xmlns="http://www.w3.org/2000/svg">
<circle cx="12" cy="12" r="12" fill="#F6F6F6"/>
<path fill-rule="evenodd" clip-rule="evenodd" d="M9.54259 4C7.41204 4 5.76361 5.91703 6.02787 8.0874L7.24563 18.0888C7.37857 19.1807 8.28266 20 9.35447 20H14.6455C15.7173 20 16.6214 19.1807 16.7544 18.0888L17.9721 8.0874C18.2364 5.91703 16.588 4 14.4574 4H9.54259ZM7.53803 6.90909C7.8279 6.06945 8.60792 5.45455 9.54259 5.45455H14.4574C15.3921 5.45455 16.1721 6.06945 16.4619 6.90909H7.53803ZM7.48937 8.36364L8.65152 17.9084C8.69583 18.2724 8.99719 18.5455 9.35447 18.5455H14.6455C15.0028 18.5455 15.3042 18.2724 15.3484 17.9084L16.5106 8.36364H7.48937Z" fill="#352F44"/>
<path d="M14.1266 11.2711C13.8499 10.9871 13.4014 10.9871 13.1248 11.2711L12 12.4259L10.8808 11.2768C10.6041 10.9928 10.1555 10.9928 9.87889 11.2768C9.60224 11.5609 9.60224 12.0213 9.87889 12.3054L10.9981 13.4544L9.87474 14.6077C9.59809 14.8917 9.59809 15.3522 9.87474 15.6362C10.1514 15.9202 10.5999 15.9202 10.8766 15.6362L12 14.4829L13.1248 15.6376C13.4014 15.9216 13.8499 15.9216 14.1266 15.6376C14.4033 15.3536 14.4033 14.8931 14.1266 14.6091L13.0018 13.4544L14.1266 12.2997C14.4033 12.0156 14.4033 11.5552 14.1266 11.2711Z" fill="#352F44"/>
</svg>
