<svg width="20" height="20" viewBox="0 0 20 20" fill="none" xmlns="http://www.w3.org/2000/svg">
<path d="M5.5 19H3.25C2.00736 19 1 17.9927 1 16.75V3.25C1 2.00736 2.00736 1 3.25 1H6.625M5.5 19V12.25C5.5 11.6287 6.00368 11.125 6.625 11.125H13.375C13.9963 11.125 14.5 11.6287 14.5 12.25V19M5.5 19H14.5M6.625 1V4.375C6.625 4.99632 7.12868 5.5 7.75 5.5H12.25C12.8713 5.5 13.375 4.99632 13.375 4.375V1M6.625 1H13.375M14.5 19H16.75C17.9927 19 19 17.9927 19 16.75V6.43198C19 5.83524 18.763 5.26295 18.341 4.84099L15.159 1.65901C14.737 1.23705 14.1648 1 13.5681 1H13.375" stroke="#352F44" stroke-width="2" stroke-linecap="round" stroke-linejoin="round"/>
</svg>
