<svg width="44" height="36" viewBox="0 0 44 36" fill="none" xmlns="http://www.w3.org/2000/svg">
<path d="M17.6 1.6875L18.7668 0.494156C18.6136 0.337464 18.4317 0.213175 18.2315 0.128388C18.0313 0.0436 17.8167 -2.65305e-05 17.6 1.21042e-08V1.6875ZM22 6.1875L20.8332 7.38084C20.9864 7.53754 21.1683 7.66182 21.3685 7.74661C21.5687 7.8314 21.7833 7.87503 22 7.875V6.1875ZM37.95 32.625H6.05V36H37.95V32.625ZM3.3 29.8125V6.1875H0V29.8125H3.3ZM6.05 3.375H17.6V1.21042e-08H6.05V3.375ZM16.4332 2.88084L20.8332 7.38084L23.1668 4.99416L18.7668 0.494156L16.4332 2.88084ZM40.7 10.6875V29.8125H44V10.6875H40.7ZM22 7.875H37.95V4.5H22V7.875ZM6.05 32.625C4.53118 32.625 3.3 31.3658 3.3 29.8125H0C0 33.2297 2.70875 36 6.05 36V32.625ZM37.95 36C41.2913 36 44 33.2297 44 29.8125H40.7C40.7 31.3658 39.4688 32.625 37.95 32.625V36ZM44 10.6875C44 7.27031 41.2913 4.5 37.95 4.5V7.875C39.4688 7.875 40.7 9.13416 40.7 10.6875H44ZM3.3 6.1875C3.3 4.63416 4.53118 3.375 6.05 3.375V1.21042e-08C2.70875 1.21042e-08 0 2.77031 0 6.1875H3.3Z" fill="#352F44"/>
</svg>
