<svg width="270" height="283" viewBox="0 0 270 283" fill="none" xmlns="http://www.w3.org/2000/svg">
<path fill-rule="evenodd" clip-rule="evenodd" d="M160.277 2.1542C155.015 6.32554e-07 148.344 0 135 0C121.656 0 114.984 6.32554e-07 109.722 2.1542C102.705 5.0265 97.1301 10.5358 94.2236 17.47C92.8968 20.6355 92.3775 24.3168 92.1743 29.6866C91.8758 37.5779 87.7806 44.8822 80.8602 48.8307C73.9398 52.7789 65.4911 52.6315 58.4263 48.9414C53.6188 46.4304 50.1331 45.0341 46.6956 44.5869C39.1654 43.6072 31.5499 45.6237 25.5243 50.1929C21.0051 53.6197 17.6692 59.3295 10.9975 70.749C4.32579 82.1686 0.990014 87.8783 0.24652 93.4595C-0.744947 100.901 1.29568 108.427 5.91936 114.382C8.02976 117.1 10.9956 119.384 15.5988 122.242C22.366 126.444 26.7203 133.603 26.7199 141.5C26.7194 149.397 22.3653 156.554 15.5988 160.755C10.9949 163.615 8.02848 165.9 5.91794 168.618C1.29426 174.573 -0.746225 182.098 0.2451 189.539C0.988594 195.12 4.32451 200.831 10.9961 212.25C17.6678 223.669 21.0037 229.38 25.5229 232.806C31.5484 237.375 39.164 239.391 46.6942 238.412C50.1315 237.965 53.6169 236.568 58.4241 234.058C65.4894 230.368 73.9387 230.22 80.8595 234.168C87.7803 238.118 91.8756 245.422 92.1743 253.315C92.3775 258.683 92.8968 262.365 94.2236 265.53C97.1301 272.464 102.705 277.974 109.722 280.846C114.984 283 121.656 283 135 283C148.344 283 155.015 283 160.277 280.846C167.295 277.974 172.869 272.464 175.775 265.53C177.103 262.365 177.623 258.683 177.826 253.313C178.124 245.422 182.219 238.118 189.139 234.168C196.06 230.219 204.509 230.368 211.575 234.058C216.382 236.568 219.866 237.963 223.304 238.411C230.834 239.391 238.45 237.375 244.475 232.806C248.995 229.379 252.33 223.669 259.002 212.249C265.674 200.83 269.009 195.12 269.754 189.539C270.744 182.098 268.704 174.571 264.081 168.617C261.969 165.899 259.004 163.614 254.399 160.755C247.634 156.554 243.28 149.396 243.28 141.499C243.28 133.601 247.634 126.446 254.399 122.245C259.005 119.385 261.971 117.101 264.082 114.382C268.705 108.428 270.746 100.902 269.755 93.4603C269.011 87.8793 265.675 82.1695 259.004 70.75C252.332 59.3305 248.997 53.6207 244.476 50.1939C238.451 45.6247 230.836 43.6082 223.305 44.5879C219.868 45.0351 216.382 46.4312 211.576 48.942C204.511 52.6322 196.061 52.7798 189.14 48.8311C182.22 44.8825 178.124 37.5776 177.825 29.6858C177.621 24.3165 177.103 20.6354 175.775 17.47C172.869 10.5358 167.295 5.0265 160.277 2.1542ZM135 183.95C158.724 183.95 177.955 164.945 177.955 141.5C177.955 118.055 158.724 99.05 135 99.05C111.275 99.05 92.0437 118.055 92.0437 141.5C92.0437 164.945 111.275 183.95 135 183.95Z" fill="#5C5470"/>
</svg>
