<svg width="28" height="28" viewBox="0 0 28 28" fill="none" xmlns="http://www.w3.org/2000/svg">
<path d="M26 14C26 20.6274 20.6274 26 14 26C7.37258 26 2 20.6274 2 14C2 7.37258 7.37258 2 14 2C20.6274 2 26 7.37258 26 14Z" fill="white"/>
<path d="M10.0168 10.0167C9.33334 10.7001 9.33334 11.8001 9.33334 13.9999C9.33334 16.1998 9.33334 17.2997 10.0168 17.9832C10.7002 18.6666 11.8001 18.6666 14 18.6666C16.1999 18.6666 17.2998 18.6666 17.9832 17.9832C18.6667 17.2997 18.6667 16.1998 18.6667 13.9999C18.6667 11.8001 18.6667 10.7001 17.9832 10.0167C17.2998 9.33325 16.1999 9.33325 14 9.33325C11.8001 9.33325 10.7002 9.33325 10.0168 10.0167Z" fill="#352F44"/>
</svg>
